<svg width="2634pt" height="589pt" viewBox="0.00 0.00 2634.00 588.57" xmlns="http://www.w3.org/2000/svg" xmlns:xlink="http://www.w3.org/1999/xlink">
<g id="graph1" class="graph" transform="scale(1 1) rotate(0) translate(4 584.573)">
<title>G</title>
<polygon fill="white" stroke="white" points="-4,5 -4,-584.573 2631,-584.573 2631,5 -4,5"></polygon>
<!-- nt0 -->
<g id="node1" class="node"><title>nt0</title>
<ellipse fill="none" stroke="black" cx="34" cy="-239.902" rx="33.6247" ry="18"></ellipse>
<text text-anchor="middle" x="34" y="-235.702" font-family="Times,serif" font-size="14.00">main'</text>
</g>
<!-- nt9 -->
<g id="node10" class="node"><title>nt9</title>
<ellipse fill="none" stroke="black" cx="135" cy="-239.902" rx="30.1958" ry="18"></ellipse>
<text text-anchor="middle" x="135" y="-235.702" font-family="Times,serif" font-size="14.00">main</text>
</g>
<!-- nt0&#45;&gt;nt9 -->
<g id="edge2" class="edge"><title>nt0-&gt;nt9</title>
<path fill="none" stroke="black" d="M67.6907,-239.902C76.1917,-239.902 85.4432,-239.902 94.264,-239.902"></path>
<polygon fill="black" stroke="black" points="94.3502,-243.402 104.35,-239.902 94.3501,-236.402 94.3502,-243.402"></polygon>
</g>
<!-- nt1 -->
<g id="node2" class="node"><title>nt1</title>
<ellipse fill="none" stroke="black" cx="1397" cy="-524.902" rx="89.7248" ry="18"></ellipse>
<text text-anchor="middle" x="1397" y="-520.702" font-family="Times,serif" font-size="14.00">variable_declaration</text>
</g>
<!-- nt17 -->
<g id="node18" class="node"><title>nt17</title>
<ellipse fill="none" stroke="black" cx="230" cy="-239.902" rx="28.3913" ry="18"></ellipse>
<text text-anchor="middle" x="230" y="-235.702" font-family="Times,serif" font-size="14.00">expr</text>
</g>
<!-- nt1&#45;&gt;nt17 -->
<g id="edge4" class="edge"><title>nt1-&gt;nt17</title>
<path fill="none" stroke="black" d="M1321.97,-534.96C1100.98,-563.296 451.631,-633.775 294,-506.902 256.899,-477.04 239.317,-330.884 233.4,-268.361"></path>
<polygon fill="black" stroke="black" points="236.853,-267.688 232.458,-258.047 229.882,-268.324 236.853,-267.688"></polygon>
</g>
<!-- nt2 -->
<g id="node3" class="node"><title>nt2</title>
<ellipse fill="none" stroke="black" cx="2576" cy="-443.902" rx="50.38" ry="18"></ellipse>
<text text-anchor="middle" x="2576" y="-439.702" font-family="Times,serif" font-size="14.00">type_field</text>
</g>
<!-- nt3 -->
<g id="node4" class="node"><title>nt3</title>
<ellipse fill="none" stroke="black" cx="1397" cy="-469.902" rx="75.2809" ry="18"></ellipse>
<text text-anchor="middle" x="1397" y="-465.702" font-family="Times,serif" font-size="14.00">type_declaration</text>
</g>
<!-- nt4 -->
<g id="node5" class="node"><title>nt4</title>
<ellipse fill="none" stroke="black" cx="1551" cy="-467.902" rx="27" ry="18"></ellipse>
<text text-anchor="middle" x="1551" y="-463.702" font-family="Times,serif" font-size="14.00">typ</text>
</g>
<!-- nt3&#45;&gt;nt4 -->
<g id="edge6" class="edge"><title>nt3-&gt;nt4</title>
<path fill="none" stroke="black" d="M1472.66,-468.919C1486.83,-468.733 1501.06,-468.545 1513.39,-468.383"></path>
<polygon fill="black" stroke="black" points="1513.72,-471.879 1523.67,-468.248 1513.63,-464.88 1513.72,-471.879"></polygon>
</g>
<!-- nt12 -->
<g id="node13" class="node"><title>nt12</title>
<ellipse fill="none" stroke="black" cx="1841" cy="-443.902" rx="226.85" ry="18"></ellipse>
<text text-anchor="middle" x="1841" y="-439.702" font-family="Times,serif" font-size="14.00">loption(separated_nonempty_list(COMMA,type_field))</text>
</g>
<!-- nt4&#45;&gt;nt12 -->
<g id="edge8" class="edge"><title>nt4-&gt;nt12</title>
<path fill="none" stroke="black" d="M1577.81,-465.751C1600.69,-463.844 1636.22,-460.883 1673.81,-457.75"></path>
<polygon fill="black" stroke="black" points="1674.26,-461.225 1683.93,-456.907 1673.68,-454.25 1674.26,-461.225"></polygon>
</g>
<!-- nt5 -->
<g id="node6" class="node"><title>nt5</title>
<ellipse fill="none" stroke="black" cx="1052" cy="-341.902" rx="189.811" ry="18"></ellipse>
<text text-anchor="middle" x="1052" y="-337.702" font-family="Times,serif" font-size="14.00">separated_nonempty_list(SEMICOLON,expr)</text>
</g>
<!-- nt5&#45;&gt;nt5 -->
<g id="edge10" class="edge"><title>nt5-&gt;nt5</title>
<path fill="none" stroke="black" d="M990.586,-359.311C979.123,-368.989 999.594,-377.902 1052,-377.902 1084.75,-377.902 1105.03,-374.42 1112.84,-369.446"></path>
<polygon fill="black" stroke="black" points="1116.34,-369.494 1113.41,-359.311 1109.35,-369.097 1116.34,-369.494"></polygon>
</g>
<!-- nt5&#45;&gt;nt17 -->
<g id="edge12" class="edge"><title>nt5-&gt;nt17</title>
<path fill="none" stroke="black" d="M950.176,-357.157C770.005,-382.322 401.552,-423.656 294,-358.902 261.36,-339.249 244.745,-296.386 236.98,-267.832"></path>
<polygon fill="black" stroke="black" points="240.347,-266.869 234.507,-258.029 233.56,-268.582 240.347,-266.869"></polygon>
</g>
<!-- nt6 -->
<g id="node7" class="node"><title>nt6</title>
<ellipse fill="none" stroke="black" cx="2297" cy="-443.902" rx="193.262" ry="18"></ellipse>
<text text-anchor="middle" x="2297" y="-439.702" font-family="Times,serif" font-size="14.00">separated_nonempty_list(COMMA,type_field)</text>
</g>
<!-- nt6&#45;&gt;nt2 -->
<g id="edge14" class="edge"><title>nt6-&gt;nt2</title>
<path fill="none" stroke="black" d="M2490.39,-443.902C2499.12,-443.902 2507.51,-443.902 2515.39,-443.902"></path>
<polygon fill="black" stroke="black" points="2515.44,-447.402 2525.44,-443.902 2515.44,-440.402 2515.44,-447.402"></polygon>
</g>
<!-- nt6&#45;&gt;nt6 -->
<g id="edge16" class="edge"><title>nt6-&gt;nt6</title>
<path fill="none" stroke="black" d="M2247.37,-461.311C2238.1,-470.989 2254.65,-479.902 2297,-479.902 2323.47,-479.902 2339.86,-476.42 2346.17,-471.446"></path>
<polygon fill="black" stroke="black" points="2349.67,-471.461 2346.63,-461.311 2342.68,-471.14 2349.67,-471.461"></polygon>
</g>
<!-- nt7 -->
<g id="node8" class="node"><title>nt7</title>
<ellipse fill="none" stroke="black" cx="1052" cy="-254.902" rx="171.272" ry="18"></ellipse>
<text text-anchor="middle" x="1052" y="-250.702" font-family="Times,serif" font-size="14.00">separated_nonempty_list(COMMA,expr)</text>
</g>
<!-- nt7&#45;&gt;nt7 -->
<g id="edge18" class="edge"><title>nt7-&gt;nt7</title>
<path fill="none" stroke="black" d="M991.043,-271.939C978.603,-281.759 998.922,-290.902 1052,-290.902 1085.17,-290.902 1105.55,-287.33 1113.13,-282.254"></path>
<polygon fill="black" stroke="black" points="1116.63,-281.878 1112.96,-271.939 1109.63,-281.997 1116.63,-281.878"></polygon>
</g>
<!-- nt7&#45;&gt;nt17 -->
<g id="edge20" class="edge"><title>nt7-&gt;nt17</title>
<path fill="none" stroke="black" d="M900.202,-263.228C866.573,-264.757 831.08,-266.117 798,-266.902 574.063,-272.209 513.425,-311.94 294,-266.902 282.87,-264.617 271.278,-260.28 261.117,-255.74"></path>
<polygon fill="black" stroke="black" points="262.414,-252.482 251.876,-251.386 259.43,-258.815 262.414,-252.482"></polygon>
</g>
<!-- nt8 -->
<g id="node9" class="node"><title>nt8</title>
<ellipse fill="none" stroke="black" cx="1052" cy="-172.902" rx="217.634" ry="18"></ellipse>
<text text-anchor="middle" x="1052" y="-168.702" font-family="Times,serif" font-size="14.00">separated_nonempty_list(COMMA,__anonymous_0)</text>
</g>
<!-- nt8&#45;&gt;nt8 -->
<g id="edge22" class="edge"><title>nt8-&gt;nt8</title>
<path fill="none" stroke="black" d="M990.586,-190.311C979.123,-199.989 999.594,-208.902 1052,-208.902 1084.75,-208.902 1105.03,-205.42 1112.84,-200.446"></path>
<polygon fill="black" stroke="black" points="1116.34,-200.494 1113.41,-190.311 1109.35,-200.097 1116.34,-200.494"></polygon>
</g>
<!-- nt8&#45;&gt;nt17 -->
<g id="edge24" class="edge"><title>nt8-&gt;nt17</title>
<path fill="none" stroke="black" d="M836.87,-175.863C649.893,-179.981 393.336,-189.764 294,-212.902 283.022,-215.459 271.542,-219.82 261.435,-224.301"></path>
<polygon fill="black" stroke="black" points="259.822,-221.191 252.227,-228.578 262.771,-227.539 259.822,-221.191"></polygon>
</g>
<!-- nt9&#45;&gt;nt17 -->
<g id="edge26" class="edge"><title>nt9-&gt;nt17</title>
<path fill="none" stroke="black" d="M165.426,-239.902C173.673,-239.902 182.753,-239.902 191.405,-239.902"></path>
<polygon fill="black" stroke="black" points="191.663,-243.402 201.663,-239.902 191.663,-236.402 191.663,-243.402"></polygon>
</g>
<!-- nt10 -->
<g id="node11" class="node"><title>nt10</title>
<ellipse fill="none" stroke="black" cx="546" cy="-75.9015" rx="34.769" ry="18"></ellipse>
<text text-anchor="middle" x="546" y="-71.7015" font-family="Times,serif" font-size="14.00">lvalue</text>
</g>
<!-- nt10&#45;&gt;nt10 -->
<g id="edge28" class="edge"><title>nt10-&gt;nt10</title>
<path fill="none" stroke="black" d="M513.496,-82.6178C469.126,-95.1305 479.961,-111.902 546,-111.902 606.622,-111.902 620.725,-97.7692 588.308,-85.7715"></path>
<polygon fill="black" stroke="black" points="589.095,-82.3479 578.504,-82.6178 586.952,-89.0117 589.095,-82.3479"></polygon>
</g>
<!-- nt10&#45;&gt;nt17 -->
<g id="edge30" class="edge"><title>nt10-&gt;nt17</title>
<path fill="none" stroke="black" d="M511.796,-78.8441C460.126,-79.648 359.611,-81.9983 294,-129.902 265.999,-150.345 249.297,-187.042 240.2,-212.548"></path>
<polygon fill="black" stroke="black" points="236.875,-211.455 236.971,-222.05 243.503,-213.708 236.875,-211.455"></polygon>
</g>
<!-- nt11 -->
<g id="node12" class="node"><title>nt11</title>
<ellipse fill="none" stroke="black" cx="546" cy="-331.902" rx="223.9" ry="18"></ellipse>
<text text-anchor="middle" x="546" y="-327.702" font-family="Times,serif" font-size="14.00">loption(separated_nonempty_list(SEMICOLON,expr))</text>
</g>
<!-- nt11&#45;&gt;nt5 -->
<g id="edge32" class="edge"><title>nt11-&gt;nt5</title>
<path fill="none" stroke="black" d="M763.3,-336.193C794.004,-336.802 825.429,-337.426 855.703,-338.027"></path>
<polygon fill="black" stroke="black" points="855.855,-341.53 865.923,-338.229 855.994,-334.532 855.855,-341.53"></polygon>
</g>
<!-- nt12&#45;&gt;nt6 -->
<g id="edge34" class="edge"><title>nt12-&gt;nt6</title>
<path fill="none" stroke="black" d="M2068,-443.902C2076.46,-443.902 2084.92,-443.902 2093.33,-443.902"></path>
<polygon fill="black" stroke="black" points="2093.57,-447.402 2103.57,-443.902 2093.57,-440.402 2093.57,-447.402"></polygon>
</g>
<!-- nt13 -->
<g id="node14" class="node"><title>nt13</title>
<ellipse fill="none" stroke="black" cx="546" cy="-239.902" rx="204.861" ry="18"></ellipse>
<text text-anchor="middle" x="546" y="-235.702" font-family="Times,serif" font-size="14.00">loption(separated_nonempty_list(COMMA,expr))</text>
</g>
<!-- nt13&#45;&gt;nt7 -->
<g id="edge36" class="edge"><title>nt13-&gt;nt7</title>
<path fill="none" stroke="black" d="M740.418,-245.658C785.359,-246.996 832.93,-248.411 876.977,-249.722"></path>
<polygon fill="black" stroke="black" points="877.103,-253.227 887.202,-250.027 877.311,-246.231 877.103,-253.227"></polygon>
</g>
<!-- nt14 -->
<g id="node15" class="node"><title>nt14</title>
<ellipse fill="none" stroke="black" cx="546" cy="-147.902" rx="251.723" ry="18"></ellipse>
<text text-anchor="middle" x="546" y="-143.702" font-family="Times,serif" font-size="14.00">loption(separated_nonempty_list(COMMA,__anonymous_0))</text>
</g>
<!-- nt14&#45;&gt;nt8 -->
<g id="edge38" class="edge"><title>nt14-&gt;nt8</title>
<path fill="none" stroke="black" d="M753.45,-158.142C786.832,-159.798 821.318,-161.509 854.457,-163.152"></path>
<polygon fill="black" stroke="black" points="854.534,-166.66 864.695,-163.66 854.881,-159.669 854.534,-166.66"></polygon>
</g>
<!-- nt15 -->
<g id="node16" class="node"><title>nt15</title>
<ellipse fill="none" stroke="black" cx="546" cy="-461.902" rx="72.3419" ry="18"></ellipse>
<text text-anchor="middle" x="546" y="-457.702" font-family="Times,serif" font-size="14.00">list(declaration)</text>
</g>
<!-- nt15&#45;&gt;nt15 -->
<g id="edge40" class="edge"><title>nt15-&gt;nt15</title>
<path fill="none" stroke="black" d="M496.156,-475.007C474.147,-486.168 490.762,-497.902 546,-497.902 591.313,-497.902 610.635,-490.006 603.967,-481.007"></path>
<polygon fill="black" stroke="black" points="605.967,-478.133 595.844,-475.007 601.808,-483.764 605.967,-478.133"></polygon>
</g>
<!-- nt18 -->
<g id="node19" class="node"><title>nt18</title>
<ellipse fill="none" stroke="black" cx="1052" cy="-465.902" rx="53.8693" ry="18"></ellipse>
<text text-anchor="middle" x="1052" y="-461.702" font-family="Times,serif" font-size="14.00">declaration</text>
</g>
<!-- nt15&#45;&gt;nt18 -->
<g id="edge42" class="edge"><title>nt15-&gt;nt18</title>
<path fill="none" stroke="black" d="M618.142,-462.466C716.742,-463.249 893.418,-464.651 987.68,-465.399"></path>
<polygon fill="black" stroke="black" points="987.897,-468.901 997.925,-465.48 987.953,-461.901 987.897,-468.901"></polygon>
</g>
<!-- nt16 -->
<g id="node17" class="node"><title>nt16</title>
<ellipse fill="none" stroke="black" cx="1397" cy="-415.902" rx="90.8916" ry="18"></ellipse>
<text text-anchor="middle" x="1397" y="-411.702" font-family="Times,serif" font-size="14.00">function_declaration</text>
</g>
<!-- nt16&#45;&gt;nt12 -->
<g id="edge44" class="edge"><title>nt16-&gt;nt12</title>
<path fill="none" stroke="black" d="M1483.75,-421.333C1531.92,-424.385 1594.03,-428.32 1652.86,-432.046"></path>
<polygon fill="black" stroke="black" points="1652.83,-435.552 1663.03,-432.691 1653.27,-428.566 1652.83,-435.552"></polygon>
</g>
<!-- nt16&#45;&gt;nt17 -->
<g id="edge46" class="edge"><title>nt16-&gt;nt17</title>
<path fill="none" stroke="black" d="M1307.45,-419.259C1060.47,-427.869 376.717,-446.295 294,-389.902 253.498,-362.289 238.957,-303.179 233.792,-267.966"></path>
<polygon fill="black" stroke="black" points="237.238,-267.329 232.471,-257.867 230.297,-268.236 237.238,-267.329"></polygon>
</g>
<!-- nt17&#45;&gt;nt10 -->
<g id="edge48" class="edge"><title>nt17-&gt;nt10</title>
<path fill="none" stroke="black" d="M233.851,-221.965C240.079,-193.194 257.373,-138.643 294,-111.902 356.684,-66.1357 451.226,-61.9484 504.595,-66.7457"></path>
<polygon fill="black" stroke="black" points="504.385,-70.243 514.698,-67.8153 505.122,-63.2819 504.385,-70.243"></polygon>
</g>
<!-- nt17&#45;&gt;nt11 -->
<g id="edge50" class="edge"><title>nt17-&gt;nt11</title>
<path fill="none" stroke="black" d="M243.03,-256.129C254.463,-270.228 272.994,-289.912 294,-299.902 311.478,-308.213 330.374,-314.612 349.682,-319.51"></path>
<polygon fill="black" stroke="black" points="348.959,-322.936 359.499,-321.866 350.592,-316.129 348.959,-322.936"></polygon>
</g>
<!-- nt17&#45;&gt;nt13 -->
<g id="edge52" class="edge"><title>nt17-&gt;nt13</title>
<path fill="none" stroke="black" d="M258.316,-239.902C276.401,-239.902 301.991,-239.902 330.518,-239.902"></path>
<polygon fill="black" stroke="black" points="330.723,-243.402 340.723,-239.902 330.723,-236.402 330.723,-243.402"></polygon>
</g>
<!-- nt17&#45;&gt;nt14 -->
<g id="edge54" class="edge"><title>nt17-&gt;nt14</title>
<path fill="none" stroke="black" d="M243.03,-223.674C254.463,-209.575 272.994,-189.891 294,-179.902 309.421,-172.568 325.945,-166.724 342.883,-162.086"></path>
<polygon fill="black" stroke="black" points="344.095,-165.387 352.899,-159.492 342.34,-158.611 344.095,-165.387"></polygon>
</g>
<!-- nt17&#45;&gt;nt15 -->
<g id="edge56" class="edge"><title>nt17-&gt;nt15</title>
<path fill="none" stroke="black" d="M231.055,-258.006C232.241,-296.427 240.875,-386.17 294,-429.902 343.649,-470.772 418.591,-475.364 473.665,-471.804"></path>
<polygon fill="black" stroke="black" points="473.996,-475.289 483.706,-471.051 473.473,-468.308 473.996,-475.289"></polygon>
</g>
<!-- nt17&#45;&gt;nt17 -->
<g id="edge58" class="edge"><title>nt17-&gt;nt17</title>
<path fill="none" stroke="black" d="M214.096,-255.068C209.277,-265.566 214.578,-275.902 230,-275.902 240.362,-275.902 246.155,-271.236 247.379,-264.99"></path>
<polygon fill="black" stroke="black" points="250.836,-264.445 245.904,-255.068 243.913,-265.474 250.836,-264.445"></polygon>
</g>
<!-- nt19 -->
<g id="node20" class="node"><title>nt19</title>
<ellipse fill="none" stroke="black" cx="546" cy="-21.9015" rx="79.3193" ry="18"></ellipse>
<text text-anchor="middle" x="546" y="-17.7015" font-family="Times,serif" font-size="14.00">binop_expression</text>
</g>
<!-- nt17&#45;&gt;nt19 -->
<g id="edge60" class="edge"><title>nt17-&gt;nt19</title>
<path fill="none" stroke="black" d="M230.869,-221.753C231.353,-181.238 238.055,-85.1117 294,-39.9015 349.196,4.70389 434.985,3.68457 490.584,-5.36602"></path>
<polygon fill="black" stroke="black" points="490.143,-8.84228 500.6,-7.14023 491.364,-1.94959 490.143,-8.84228"></polygon>
</g>
<!-- nt18&#45;&gt;nt1 -->
<g id="edge62" class="edge"><title>nt18-&gt;nt1</title>
<path fill="none" stroke="black" d="M1100.33,-474.043C1156.53,-483.71 1251.07,-499.972 1318.11,-511.503"></path>
<polygon fill="black" stroke="black" points="1317.75,-514.994 1328.2,-513.24 1318.94,-508.095 1317.75,-514.994"></polygon>
</g>
<!-- nt18&#45;&gt;nt3 -->
<g id="edge64" class="edge"><title>nt18-&gt;nt3</title>
<path fill="none" stroke="black" d="M1106.22,-466.522C1161.05,-467.162 1247.34,-468.168 1311.51,-468.916"></path>
<polygon fill="black" stroke="black" points="1311.58,-472.417 1321.62,-469.034 1311.66,-465.418 1311.58,-472.417"></polygon>
</g>
<!-- nt18&#45;&gt;nt16 -->
<g id="edge66" class="edge"><title>nt18-&gt;nt16</title>
<path fill="none" stroke="black" d="M1101.78,-458.791C1156.76,-450.777 1247.06,-437.613 1313.15,-427.979"></path>
<polygon fill="black" stroke="black" points="1313.74,-431.431 1323.13,-426.525 1312.73,-424.504 1313.74,-431.431"></polygon>
</g>
<!-- nt19&#45;&gt;nt17 -->
<g id="edge68" class="edge"><title>nt19-&gt;nt17</title>
<path fill="none" stroke="black" d="M469.092,-17.4022C414.592,-14.7412 342.491,-18.7152 294,-57.9015 246.758,-96.0789 234.63,-170.564 231.708,-211.562"></path>
<polygon fill="black" stroke="black" points="228.205,-211.517 231.127,-221.701 235.193,-211.918 228.205,-211.517"></polygon>
</g>
</g>
</svg>
